# xmcd
#
# Track frame offsets:
# 150
# 17562
# 36275
# 54537
# 70375
# 89237
# 109125
# 132600
# 152575
# 172525
# 191487
# 209162
# 224800
# 238387
# 252237
#
# Disc length: 3616 seconds
#
#
# Revision: 1
# Processed by: cddbd v1.5.1PL2 Copyright (c) Steve Scherf et al.
# Submitted via: FreeRIP 2.943 
#
DISCID=e90e1e0f
DTITLE=林志穎 - 華納我愛經典系列Disc2
DYEAR=1999
DGENRE=
TTITLE0=輕輕說聲愛妳
TTITLE1=戲夢
TTITLE2=是不是你
TTITLE3=看著我的眼晴
TTITLE4=等待的男孩
TTITLE5=為什麼受傷的總是我
TTITLE6=十七歲的雨季
TTITLE7=全心全意 I LOVE YOU
TTITLE8=生日禮物
TTITLE9=給我一個心愛的
TTITLE10=雨季
TTITLE11=愛情
TTITLE12=勇敢接受我的愛
TTITLE13=快樂要自己追逐
TTITLE14=全新的愛
EXTD=
EXTT0=
EXTT1=
EXTT2=
EXTT3=
EXTT4=
EXTT5=
EXTT6=
EXTT7=
EXTT8=
EXTT9=
EXTT10=
EXTT11=
EXTT12=
EXTT13=
EXTT14=
PLAYORDER=
